<svg xmlns="http://www.w3.org/2000/svg" viewBox="0 0 64 64">
  <rect width="64" height="64" rx="14" fill="#0F172A"/>
  <circle cx="32" cy="32" r="7" fill="#22D3EE"/>
  <g stroke="#22D3EE" stroke-width="2.5" fill="none" stroke-linecap="round">
    <line x1="32" y1="8" x2="32" y2="19"/>
    <line x1="32" y1="45" x2="32" y2="56"/>
    <line x1="8" y1="32" x2="19" y2="32"/>
    <line x1="45" y1="32" x2="56" y2="32"/>
    <line x1="15.5" y1="15.5" x2="23" y2="23"/>
    <line x1="41" y1="41" x2="48.5" y2="48.5"/>
    <line x1="48.5" y1="15.5" x2="41" y2="23"/>
    <line x1="23" y1="41" x2="15.5" y2="48.5"/>
  </g>
  <circle cx="32" cy="8" r="2.6" fill="#22D3EE"/>
  <circle cx="32" cy="56" r="2.6" fill="#22D3EE"/>
  <circle cx="8" cy="32" r="2.6" fill="#22D3EE"/>
  <circle cx="56" cy="32" r="2.6" fill="#22D3EE"/>
  <circle cx="15.5" cy="15.5" r="2.6" fill="#22D3EE"/>
  <circle cx="48.5" cy="48.5" r="2.6" fill="#22D3EE"/>
  <circle cx="48.5" cy="15.5" r="2.6" fill="#22D3EE"/>
  <circle cx="15.5" cy="48.5" r="2.6" fill="#22D3EE"/>
</svg>
